# xmcd
#
# Track frame offsets:
#	150
#	19862
#	37588
#	51175
#	71328
#	84647
#	97431
#	112572
#	129652
#	146701
#	160865
#	175868
#	192445
#	203178
#	224004
#
# Disc length: 3228 seconds
#
# Revision: 1
# Processed by: cddbd v1.4PL0 Copyright (c) Steve Scherf et al.
# Submitted via: audiograbber 1.82.02
#
DISCID=d60c9a0f
DTITLE=Various Artist - Late Night Heat
DYEAR=2003
DGENRE=Blues
TTITLE0=Adria - With All Of My Heart
TTITLE1=Cherrill Rae - Guitar Man
TTITLE2=Susan Trexler - Take Me To Paradise
TTITLE3=Olas - Suavecito (hustle mix)
TTITLE4=Big Joe Maher - Cross Road Blues
TTITLE5=Dale Power and DJ Marc - Cheerleaders In Heat
TTITLE6=Dancelife Orchestra - This Business Of Love
TTITLE7=David Cook - The Law Of Love (es la ley)
TTITLE8=Jump N' Jive - Movers and Shakers
TTITLE9=Kiela - Late Night Boogie
TTITLE10=Spellbound - Wine, Women, and Song
TTITLE11=Liz Abella - A Place In My Heart
TTITLE12=Judy London - Absolutely Paris
TTITLE13=Eric Allison and Chris LaBarbera - Spontaneous Affection
TTITLE14=Olas - Suavecito (euro mix)
EXTD=
EXTT0=
EXTT1=
EXTT2=
EXTT3=
EXTT4=
EXTT5=
EXTT6=
EXTT7=
EXTT8=
EXTT9=
EXTT10=
EXTT11=
EXTT12=
EXTT13=
EXTT14=
PLAYORDER=
